name C:/MyDriveSym/Projects/mobilecap/Data\Session20210910_0002\mocap\ForceDataProcessed\walkingTS2_forces.mot
datacolumns 19
datarows 14
range 0.78950000 0.79600000
endheader 
time	R_ground_force_vx	R_ground_force_vy	R_ground_force_vz	R_ground_force_px	R_ground_force_py	R_ground_force_pz	R_ground_torque_x	R_ground_torque_y	R_ground_torque_z	L_ground_force_vx	L_ground_force_vy	L_ground_force_vz	L_ground_force_px	L_ground_force_py	L_ground_force_pz	L_ground_torque_x	L_ground_torque_y	L_ground_torque_z	
          0.78950000	         14.70104700	         48.18784100	         -3.65450800	          0.35179400	          0.00600000	         -0.24382400	          0.00000000	         -0.30283400	          0.00000000	        -96.98954300	        836.99517600	         63.64664300	          0.81989500	          0.00600000	         -0.48030400	          0.00000000	         -1.37696700	          0.00000000	
          0.79000000	         14.37519300	         46.94710500	         -3.58924800	          0.35282100	          0.00600000	         -0.24379900	          0.00000000	         -0.29266400	          0.00000000	        -96.79367800	        837.29516800	         63.62418400	          0.82004700	          0.00600000	         -0.48033100	          0.00000000	         -1.38469200	          0.00000000	
          0.79050000	         14.05266500	         45.72061600	         -3.52458600	          0.35388700	          0.00600000	         -0.24377300	          0.00000000	         -0.28254200	          0.00000000	        -96.59735300	        837.58943400	         63.60088600	          0.82020000	          0.00600000	         -0.48035800	          0.00000000	         -1.39238300	          0.00000000	
          0.79100000	         13.73345700	         44.50831000	         -3.46051700	          0.35499200	          0.00600000	         -0.24374600	          0.00000000	         -0.27246600	          0.00000000	        -96.40058900	        837.87804600	         63.57676300	          0.82035300	          0.00600000	         -0.48038500	          0.00000000	         -1.40003800	          0.00000000	
          0.79150000	         13.41756200	         43.31012000	         -3.39703800	          0.35614000	          0.00600000	         -0.24371700	          0.00000000	         -0.26243300	          0.00000000	        -96.20340800	        838.16107200	         63.55182900	          0.82050600	          0.00600000	         -0.48041100	          0.00000000	         -1.40765800	          0.00000000	
          0.79200000	         13.10497400	         42.12598000	         -3.33414500	          0.35733300	          0.00600000	         -0.24368700	          0.00000000	         -0.25244100	          0.00000000	        -96.00583100	        838.43858200	         63.52609800	          0.82066000	          0.00600000	         -0.48043800	          0.00000000	         -1.41524200	          0.00000000	
          0.79250000	         12.79568500	         40.95582200	         -3.27183200	          0.35857500	          0.00600000	         -0.24365500	          0.00000000	         -0.24248700	          0.00000000	        -95.80788100	        838.71064400	         63.49958300	          0.82081400	          0.00600000	         -0.48046500	          0.00000000	         -1.42279000	          0.00000000	
          0.79300000	         12.48968900	         39.79957800	         -3.21009600	          0.35986800	          0.00600000	         -0.24362200	          0.00000000	         -0.23256800	          0.00000000	        -95.60957700	        838.97732700	         63.47229700	          0.82096900	          0.00600000	         -0.48049200	          0.00000000	         -1.43030100	          0.00000000	
          0.79350000	         12.18697600	         38.65717900	         -3.14893200	          0.36121500	          0.00600000	         -0.24358700	          0.00000000	         -0.22267900	          0.00000000	        -95.41094100	        839.23869800	         63.44425400	          0.82112400	          0.00600000	         -0.48051900	          0.00000000	         -1.43777400	          0.00000000	
          0.79400000	         11.88753900	         37.52855400	         -3.08833700	          0.36262000	          0.00600000	         -0.24355000	          0.00000000	         -0.21281800	          0.00000000	        -95.21199400	        839.49482300	         63.41546700	          0.82127900	          0.00600000	         -0.48054600	          0.00000000	         -1.44520800	          0.00000000	
          0.79450000	         11.59136900	         36.41363300	         -3.02830600	          0.36408800	          0.00600000	         -0.24351000	          0.00000000	         -0.20298000	          0.00000000	        -95.01275600	        839.74577100	         63.38594700	          0.82143500	          0.00600000	         -0.48057300	          0.00000000	         -1.45260400	          0.00000000	
          0.79500000	         11.29845700	         35.31234500	         -2.96883600	          0.36562300	          0.00600000	         -0.24346900	          0.00000000	         -0.19316100	          0.00000000	        -94.81324700	        839.99160800	         63.35570900	          0.82159100	          0.00600000	         -0.48060000	          0.00000000	         -1.45996100	          0.00000000	
          0.79550000	         11.00879300	         34.22461600	         -2.90992300	          0.36722900	          0.00600000	         -0.24342500	          0.00000000	         -0.18335500	          0.00000000	        -94.61348600	        840.23239800	         63.32476400	          0.82174800	          0.00600000	         -0.48062800	          0.00000000	         -1.46727700	          0.00000000	
          0.79600000	         10.72236900	         33.15037500	         -2.85156400	          0.36891200	          0.00600000	         -0.24337900	          0.00000000	         -0.17355800	          0.00000000	        -94.41349400	        840.46820800	         63.29312400	          0.82190500	          0.00600000	         -0.48065500	          0.00000000	         -1.47455300	          0.00000000	
